<mxfile host="app.diagrams.net" modified="2024-02-16T15:37:34.975Z" agent="Mozilla/5.0 (X11; Linux x86_64; rv:109.0) Gecko/20100101 Firefox/119.0" etag="AE6u9ZYoyZYADRjM2XRM" version="23.1.4" type="device">
  <diagram name="Page-1" id="C5eJdvvLRLpj0kCeoj5C">
    <mxGraphModel dx="989" dy="567" grid="1" gridSize="10" guides="1" tooltips="1" connect="1" arrows="1" fold="1" page="1" pageScale="1" pageWidth="850" pageHeight="1100" math="0" shadow="0">
      <root>
        <mxCell id="0" />
        <mxCell id="1" parent="0" />
        <mxCell id="LuoFmleVfXX2ZN7kxHwU-19" value="" style="edgeStyle=orthogonalEdgeStyle;rounded=0;orthogonalLoop=1;jettySize=auto;html=1;entryX=0;entryY=0.5;entryDx=0;entryDy=0;" edge="1" parent="1" source="m1-u2TJAcXCcuv39WsT8-2" target="LuoFmleVfXX2ZN7kxHwU-59">
          <mxGeometry relative="1" as="geometry">
            <mxPoint x="177.5" y="180" as="targetPoint" />
          </mxGeometry>
        </mxCell>
        <mxCell id="m1-u2TJAcXCcuv39WsT8-2" value="" style="ellipse;whiteSpace=wrap;html=1;aspect=fixed;fillColor=#000000;" parent="1" vertex="1">
          <mxGeometry x="30" y="160" width="40" height="40" as="geometry" />
        </mxCell>
        <mxCell id="m1-u2TJAcXCcuv39WsT8-52" value="" style="group" parent="1" vertex="1" connectable="0">
          <mxGeometry x="590" y="662.5" width="55" height="55" as="geometry" />
        </mxCell>
        <mxCell id="m1-u2TJAcXCcuv39WsT8-53" value="" style="ellipse;whiteSpace=wrap;html=1;aspect=fixed;gradientColor=default;fillColor=none;" parent="m1-u2TJAcXCcuv39WsT8-52" vertex="1">
          <mxGeometry width="55" height="55" as="geometry" />
        </mxCell>
        <mxCell id="m1-u2TJAcXCcuv39WsT8-54" value="" style="ellipse;whiteSpace=wrap;html=1;aspect=fixed;fillColor=#000000;" parent="m1-u2TJAcXCcuv39WsT8-52" vertex="1">
          <mxGeometry x="7.5" y="7.5" width="40" height="40" as="geometry" />
        </mxCell>
        <mxCell id="LuoFmleVfXX2ZN7kxHwU-65" value="" style="edgeStyle=orthogonalEdgeStyle;rounded=0;orthogonalLoop=1;jettySize=auto;html=1;" edge="1" parent="1" source="LuoFmleVfXX2ZN7kxHwU-59" target="LuoFmleVfXX2ZN7kxHwU-60">
          <mxGeometry relative="1" as="geometry" />
        </mxCell>
        <mxCell id="LuoFmleVfXX2ZN7kxHwU-59" value="Confirming notification" style="ellipse;whiteSpace=wrap;html=1;" vertex="1" parent="1">
          <mxGeometry x="170" y="150" width="120" height="60" as="geometry" />
        </mxCell>
        <mxCell id="LuoFmleVfXX2ZN7kxHwU-66" value="" style="edgeStyle=orthogonalEdgeStyle;rounded=0;orthogonalLoop=1;jettySize=auto;html=1;" edge="1" parent="1" source="LuoFmleVfXX2ZN7kxHwU-60" target="LuoFmleVfXX2ZN7kxHwU-61">
          <mxGeometry relative="1" as="geometry" />
        </mxCell>
        <mxCell id="LuoFmleVfXX2ZN7kxHwU-60" value="Searching for near by food banks" style="ellipse;whiteSpace=wrap;html=1;" vertex="1" parent="1">
          <mxGeometry x="390" y="150" width="120" height="60" as="geometry" />
        </mxCell>
        <mxCell id="LuoFmleVfXX2ZN7kxHwU-67" value="" style="edgeStyle=orthogonalEdgeStyle;rounded=0;orthogonalLoop=1;jettySize=auto;html=1;" edge="1" parent="1" source="LuoFmleVfXX2ZN7kxHwU-61" target="LuoFmleVfXX2ZN7kxHwU-62">
          <mxGeometry relative="1" as="geometry" />
        </mxCell>
        <mxCell id="LuoFmleVfXX2ZN7kxHwU-61" value="Displaying nearby food banks" style="ellipse;whiteSpace=wrap;html=1;" vertex="1" parent="1">
          <mxGeometry x="390" y="280" width="120" height="60" as="geometry" />
        </mxCell>
        <mxCell id="LuoFmleVfXX2ZN7kxHwU-68" value="" style="edgeStyle=orthogonalEdgeStyle;rounded=0;orthogonalLoop=1;jettySize=auto;html=1;" edge="1" parent="1" target="LuoFmleVfXX2ZN7kxHwU-63">
          <mxGeometry relative="1" as="geometry">
            <mxPoint x="450.0000000000002" y="590" as="sourcePoint" />
          </mxGeometry>
        </mxCell>
        <mxCell id="LuoFmleVfXX2ZN7kxHwU-76" style="edgeStyle=orthogonalEdgeStyle;rounded=0;orthogonalLoop=1;jettySize=auto;html=1;entryX=0;entryY=0.5;entryDx=0;entryDy=0;" edge="1" parent="1" source="LuoFmleVfXX2ZN7kxHwU-62" target="LuoFmleVfXX2ZN7kxHwU-61">
          <mxGeometry relative="1" as="geometry">
            <Array as="points">
              <mxPoint x="370" y="440" />
              <mxPoint x="370" y="310" />
            </Array>
          </mxGeometry>
        </mxCell>
        <mxCell id="LuoFmleVfXX2ZN7kxHwU-79" value="" style="edgeStyle=orthogonalEdgeStyle;rounded=0;orthogonalLoop=1;jettySize=auto;html=1;" edge="1" parent="1" source="LuoFmleVfXX2ZN7kxHwU-62" target="LuoFmleVfXX2ZN7kxHwU-78">
          <mxGeometry relative="1" as="geometry" />
        </mxCell>
        <mxCell id="LuoFmleVfXX2ZN7kxHwU-62" value="Display required food items of food bank" style="ellipse;whiteSpace=wrap;html=1;" vertex="1" parent="1">
          <mxGeometry x="390" y="410" width="120" height="60" as="geometry" />
        </mxCell>
        <mxCell id="LuoFmleVfXX2ZN7kxHwU-81" value="" style="edgeStyle=orthogonalEdgeStyle;rounded=0;orthogonalLoop=1;jettySize=auto;html=1;" edge="1" parent="1" source="LuoFmleVfXX2ZN7kxHwU-63" target="m1-u2TJAcXCcuv39WsT8-54">
          <mxGeometry relative="1" as="geometry" />
        </mxCell>
        <mxCell id="LuoFmleVfXX2ZN7kxHwU-63" value="Displaying food bank address" style="ellipse;whiteSpace=wrap;html=1;" vertex="1" parent="1">
          <mxGeometry x="390" y="660" width="120" height="60" as="geometry" />
        </mxCell>
        <mxCell id="LuoFmleVfXX2ZN7kxHwU-71" value="&lt;div&gt;Receive expiry&amp;nbsp;&lt;/div&gt;&lt;div&gt;notification&lt;/div&gt;" style="text;html=1;align=center;verticalAlign=middle;resizable=0;points=[];autosize=1;strokeColor=none;fillColor=none;" vertex="1" parent="1">
          <mxGeometry x="60" y="140" width="110" height="40" as="geometry" />
        </mxCell>
        <mxCell id="LuoFmleVfXX2ZN7kxHwU-72" value="&lt;div&gt;Get homeowner&amp;nbsp;&lt;/div&gt;&lt;div&gt;location&lt;/div&gt;" style="text;html=1;align=center;verticalAlign=middle;resizable=0;points=[];autosize=1;strokeColor=none;fillColor=none;" vertex="1" parent="1">
          <mxGeometry x="290" y="140" width="110" height="40" as="geometry" />
        </mxCell>
        <mxCell id="LuoFmleVfXX2ZN7kxHwU-73" value="&lt;div&gt;Display nearby&lt;/div&gt;&lt;div&gt;&amp;nbsp;food bank&lt;/div&gt;" style="text;html=1;align=center;verticalAlign=middle;resizable=0;points=[];autosize=1;strokeColor=none;fillColor=none;" vertex="1" parent="1">
          <mxGeometry x="450" y="220" width="100" height="40" as="geometry" />
        </mxCell>
        <mxCell id="LuoFmleVfXX2ZN7kxHwU-74" value="Select food bank" style="text;html=1;align=center;verticalAlign=middle;resizable=0;points=[];autosize=1;strokeColor=none;fillColor=none;" vertex="1" parent="1">
          <mxGeometry x="450" y="358" width="110" height="30" as="geometry" />
        </mxCell>
        <mxCell id="LuoFmleVfXX2ZN7kxHwU-75" value="&lt;div&gt;Display Food&lt;/div&gt;&lt;div&gt;&amp;nbsp;bank address&lt;/div&gt;" style="text;html=1;align=center;verticalAlign=middle;resizable=0;points=[];autosize=1;strokeColor=none;fillColor=none;" vertex="1" parent="1">
          <mxGeometry x="460" y="610" width="100" height="40" as="geometry" />
        </mxCell>
        <mxCell id="LuoFmleVfXX2ZN7kxHwU-77" value="Select [return button]" style="text;html=1;align=center;verticalAlign=middle;resizable=0;points=[];autosize=1;strokeColor=none;fillColor=none;" vertex="1" parent="1">
          <mxGeometry x="240" y="358" width="130" height="30" as="geometry" />
        </mxCell>
        <mxCell id="LuoFmleVfXX2ZN7kxHwU-78" value="Confirm selected food bank" style="ellipse;whiteSpace=wrap;html=1;" vertex="1" parent="1">
          <mxGeometry x="390" y="530" width="120" height="60" as="geometry" />
        </mxCell>
        <mxCell id="LuoFmleVfXX2ZN7kxHwU-80" value="&lt;div&gt;Select&lt;/div&gt;&lt;div&gt;&amp;nbsp;[confirm button]&lt;/div&gt;" style="text;html=1;align=center;verticalAlign=middle;resizable=0;points=[];autosize=1;strokeColor=none;fillColor=none;" vertex="1" parent="1">
          <mxGeometry x="455" y="480" width="110" height="40" as="geometry" />
        </mxCell>
      </root>
    </mxGraphModel>
  </diagram>
</mxfile>
